#!OML:ASF F:\VICON\USERDATA\INSTALL\rory3\rory3.ASF
:FULLY-SPECIFIED
:DEGREES
3996
root -12.8084 17.758 7.41356 717.509 -193.366 -1807.69
lowerback 12.1088 -0.375888 -6.82749
upperback 1.48078 -1.25361 -0.520107
thorax -5.09242 -0.412093 3.50044
lowerneck -19.2603 -7.15035 -12.1479
upperneck 32.7312 -7.41234 7.93256
head 15.613 -2.99073 4.20175
rclavicle 4.9398e-014 2.14687e-014
rhumerus -35.1541 -10.2523 -82.2123
rradius 32.2916
rwrist 3.89212
rhand -18.1424 6.95346
rfingers 7.12502
rthumb 8.13295 -22.87
lclavicle 4.9398e-014 2.14687e-014
lhumerus -26.4378 2.02102 81.1306
lradius 37.9729
lwrist -2.45651
lhand -19.6807 26.619
lfingers 7.12502
lthumb 6.64807 56.4946
rfemur -28.5261 -7.29887 16.3999
rtibia 37.8197
rfoot -7.1655 -12.1911
rtoes 13.8194
lfemur 1.96532 4.44346 -30.2449
ltibia 13.8291
lfoot -11.6491 -3.09128
ltoes -7.14049
3997
root -12.7752 17.7548 7.31787 717.507 -193.64 -1807.83
lowerback 12.0752 -0.355713 -6.90628
upperback 1.46194 -1.23805 -0.564212
thorax -5.09473 -0.402833 3.49529
lowerneck -19.2889 -7.19317 -12.2555
upperneck 32.7614 -7.45527 7.98214
head 15.6498 -3.01644 4.23429
rclavicle -6.41081e-015 -1.43125e-014
rhumerus -35.321 -10.6587 -82.0188
rradius 32.1004
rwrist 4.08687
rhand -18.1142 6.71026
rfingers 7.12502
rthumb 8.16016 -23.1122
lclavicle -6.41081e-015 -1.43125e-014
lhumerus -26.2337 1.89551 81.1278
lradius 38.2208
lwrist -2.53116
lhand -20.1707 25.923
lfingers 7.12502
lthumb 6.17498 55.813
rfemur -28.6666 -6.76621 16.2326
rtibia 36.0581
rfoot -6.32424 -11.8828
rtoes 14.7064
lfemur 2.79295 4.34435 -30.3757
ltibia 12.8586
lfoot -11.5295 -2.70011
ltoes -7.33567
3998
root -12.739 17.7529 7.22271 717.455 -193.916 -1807.85
lowerback 12.1151 -0.36928 -6.93805
upperback 1.47083 -1.26187 -0.549538
thorax -5.10378 -0.413483 3.53312
lowerneck -19.3402 -7.17058 -12.3254
upperneck 32.7801 -7.39895 7.99
head 15.6674 -3.00246 4.26095
rclavicle -6.11263e-015 1.63003e-014
rhumerus -35.34 -11.15 -81.7719
rradius 31.5885
rwrist 4.42241
rhand -17.9995 7.19275
rfingers 7.12502
rthumb 8.27084 -22.6253
lclavicle -6.11263e-015 1.63003e-014
lhumerus -25.9935 1.95149 81.0628
lradius 38.4265
lwrist -2.84474
lhand -19.9699 25.591
lfingers 7.12502
lthumb 6.36892 55.4753
rfemur -28.6727 -6.04267 16.1388
rtibia 34.3413
rfoot -5.44298 -11.5606
rtoes 15.6461
lfemur 3.70946 4.2928 -30.355
ltibia 11.8876
lfoot -11.3436 -2.37388
ltoes -7.58862
3999
root -12.7018 17.7506 7.12947 717.409 -194.205 -1807.98
lowerback 12.1794 -0.360038 -7.05449
upperback 1.42601 -1.27526 -0.589606
thorax -5.18394 -0.414231 3.56016
lowerneck -19.2825 -7.17731 -12.3939
upperneck 32.771 -7.4236 8.0773
head 15.6619 -3.01082 4.30654
rclavicle 8.94531e-015 1.47101e-014
rhumerus -35.4907 -11.482 -81.6293
rradius 31.1607
rwrist 4.637
rhand -17.9463 7.99598
rfingers 7.12502
rthumb 8.32216 -21.8201
lclavicle 8.94531e-015 1.47101e-014
lhumerus -25.8679 1.88682 80.9758
lradius 38.7069
lwrist -2.83524
lhand -19.7124 25.5423
lfingers 7.12502
lthumb 6.61747 55.4189
rfemur -28.7563 -5.2994 15.9413
rtibia 32.7036
rfoot -4.46343 -11.0237
rtoes 15.5989
lfemur 4.56283 4.25851 -30.4536
ltibia 10.9458
lfoot -11.0744 -2.02905
ltoes -8.28657
4000
root -12.6621 17.7484 7.0358 717.438 -194.51 -1807.93
lowerback 12.1908 -0.343786 -7.01672
upperback 1.37305 -1.25571 -0.558262
thorax -5.2491 -0.403757 3.56988
lowerneck -19.2657 -7.21859 -12.4751
upperneck 32.8306 -7.46002 8.08898
head 15.6981 -3.03434 4.3217
rclavicle -1.2275e-014 4.77083e-015
rhumerus -35.6548 -11.4751 -81.6109
rradius 30.9106
rwrist 4.54412
rhand -18.0384 8.14671
rfingers 7.12502
rthumb 8.23326 -21.6729
lclavicle -1.2275e-014 4.77083e-015
lhumerus -25.7919 1.84288 80.9812
lradius 38.9724
lwrist -2.58571
lhand -20.0328 24.8499
lfingers 7.12502
lthumb 6.30812 54.736
rfemur -28.8855 -4.63378 15.9488
rtibia 31.1728
rfoot -3.71708 -10.2455
rtoes 16.1041
lfemur 5.41362 4.23851 -30.3562
ltibia 9.93205
lfoot -10.6739 -1.71095
ltoes -8.98492
4001
root -12.6194 17.7441 6.93991 717.409 -194.787 -1807.86
lowerback 12.1786 -0.335627 -6.93109
upperback 1.38607 -1.23227 -0.55773
thorax -5.23301 -0.395136 3.51813
lowerneck -19.2403 -7.2174 -12.4334
upperneck 32.8429 -7.44157 7.98659
head 15.6876 -3.03698 4.27335
rclavicle -6.55989e-015 1.19271e-015
rhumerus -35.7723 -11.5169 -81.6405
rradius 30.6827
rwrist 4.3745
rhand -18.1628 7.97127
rfingers 7.12502
rthumb 8.11325 -21.853
lclavicle -6.55989e-015 1.19271e-015
lhumerus -25.564 1.75031 80.9255
lradius 39.0825
lwrist -2.45644
lhand -20.344 24.1886
lfingers 7.12502
lthumb 6.00767 54.0834
rfemur -28.9184 -3.83857 15.8911
rtibia 29.8036
rfoot -3.45189 -9.50568
rtoes 17.1661
lfemur 6.41792 4.19788 -30.2356
ltibia 8.77268
lfoot -10.2582 -1.42346
ltoes -9.55463
4002
root -12.5802 17.7419 6.84226 717.416 -194.976 -1807.88
lowerback 12.111 -0.382912 -6.89378
upperback 1.42679 -1.28158 -0.568163
thorax -5.14774 -0.423627 3.49216
lowerneck -19.2983 -7.16566 -12.3854
upperneck 32.7839 -7.36581 7.92203
head 15.6547 -3.01284 4.24674
rclavicle -1.54555e-014 -7.15625e-015
rhumerus -35.6807 -11.7246 -81.5988
rradius 30.2292
rwrist 4.5071
rhand -18.3353 7.929
rfingers 7.12502
rthumb 7.94673 -21.9016
lclavicle -1.54555e-014 -7.15625e-015
lhumerus -25.2939 1.81571 80.8786
lradius 39.2043
lwrist -2.28114
lhand -20.2804 24.2463
lfingers 7.12502
lthumb 6.0691 54.1394
rfemur -29.0251 -3.2596 15.7558
rtibia 28.5896
rfoot -3.47734 -8.76248
rtoes 17.2311
lfemur 7.42549 4.06787 -30.2265
ltibia 7.56186
lfoot -9.83198 -1.16716
ltoes -10.3153
4003
root -12.5375 17.7428 6.744 717.47 -195.134 -1807.85
lowerback 12.0365 -0.41318 -6.84948
upperback 1.44515 -1.30903 -0.556123
thorax -5.08455 -0.440975 3.48261
lowerneck -19.4388 -7.20832 -12.4439
upperneck 32.7897 -7.4204 7.96322
head 15.7037 -3.04 4.26143
rclavicle -1.85367e-014 -1.07344e-014
rhumerus -35.6153 -12.1344 -81.4538
rradius 29.8109
rwrist 4.80745
rhand -18.3658 7.7993
rfingers 7.12502
rthumb 7.91725 -22.0324
lclavicle -1.85367e-014 -1.07344e-014
lhumerus -25.0774 1.78105 80.8802
lradius 39.3944
lwrist -2.07378
lhand -20.1112 24.4673
lfingers 7.12502
lthumb 6.23242 54.3556
rfemur -29.2122 -2.91448 15.7348
rtibia 27.5566
rfoot -3.77082 -8.06389
rtoes 15.4118
lfemur 8.44609 3.89666 -30.1831
ltibia 6.22768
lfoot -9.32871 -0.894757
ltoes -11.2643
4004
root -12.4914 17.7423 6.64473 717.536 -195.27 -1807.78
lowerback 11.9148 -0.445595 -6.75916
upperback 1.46505 -1.32985 -0.520175
thorax -4.99489 -0.457432 3.47035
lowerneck -19.4909 -7.23149 -12.3915
upperneck 32.7422 -7.42285 7.79761
head 15.681 -3.06238 4.17385
rclavicle 1.92821e-014 2.38542e-015
rhumerus -35.6919 -12.3902 -81.3216
rradius 29.6407
rwrist 5.03381
rhand -18.1975 7.67021
rfingers 7.12502
rthumb 8.07974 -22.1553
lclavicle 1.92821e-014 2.38542e-015
lhumerus -24.8826 1.65361 80.9051
lradius 39.5149
lwrist -2.017
lhand -20.1168 24.303
lfingers 7.12502
lthumb 6.22709 54.1915
rfemur -29.3624 -2.67301 15.8152
rtibia 26.6871
rfoot -4.42854 -7.50374
rtoes 12.6162
lfemur 9.42763 3.70085 -30.076
ltibia 4.87049
lfoot -8.86708 -0.613683
ltoes -12.2931
4005
root -12.448 17.7348 6.54542 717.532 -195.419 -1807.71
lowerback 11.803 -0.499891 -6.63442
upperback 1.51901 -1.37301 -0.49855
thorax -4.87344 -0.486313 3.42663
lowerneck -19.4899 -7.22599 -12.3717
upperneck 32.6757 -7.41187 7.7381
head 15.6425 -3.06828 4.14188
rclavicle -2.18663e-015 3.18055e-015
rhumerus -35.6707 -12.5025 -81.2374
rradius 29.3579
rwrist 5.19403
rhand -18.0883 7.54445
rfingers 7.12502
rthumb 8.18509 -22.277
lclavicle -2.18663e-015 3.18055e-015
lhumerus -24.7359 1.65172 80.9137
lradius 39.5972
lwrist -1.95776
lhand -20.3094 24.0776
lfingers 7.12502
lthumb 6.04107 53.9715
rfemur -29.3578 -2.07809 15.7586
rtibia 25.9411
rfoot -5.23002 -7.4292
rtoes 10.4588
lfemur 10.3034 3.53034 -29.9787
ltibia 3.79797
lfoot -8.53811 -0.414065
ltoes -12.9964
